<svg width="24" height="24" viewBox="0 0 24 24" fill="none" xmlns="http://www.w3.org/2000/svg">
<path d="M15.4244 8.18955L10.6976 12.7317L8.57561 10.6958C8.43659 10.5624 8.26098 10.4992 8.08537 10.4992C7.90976 10.4992 7.73415 10.5624 7.59512 10.6958L6.20488 12.0296C6.06585 12.163 6 12.3315 6 12.5C6 12.6685 6.06585 12.844 6.20488 12.9704L7.8439 14.5499L7.87317 14.564L10.2073 16.8105C10.2293 16.8315 10.2512 16.8456 10.2659 16.8596L10.3317 16.9017C10.3463 16.9158 10.361 16.9228 10.3756 16.9298L10.4195 16.9509L10.4341 16.9579C10.4488 16.9649 10.4634 16.9649 10.478 16.9719C10.4927 16.9789 10.5146 16.986 10.5293 16.986L10.6024 17H10.6463H10.7415H10.7854C10.8073 17 10.822 16.993 10.8439 16.993C10.8659 16.986 10.8951 16.9789 10.9171 16.9719C10.939 16.9649 10.961 16.9579 10.9829 16.9438L11.0268 16.9228L11.0415 16.9158L11.0488 16.9087C11.078 16.8947 11.0927 16.8807 11.1146 16.8666L11.1439 16.8456L11.1732 16.8175L11.1878 16.8034L17.2024 11.0328L17.7951 10.4641C17.9341 10.3378 18 10.1622 18 9.99376C18 9.82527 17.9341 9.65679 17.7951 9.5234L16.4195 8.21061L16.4049 8.19657C16.2732 8.06318 16.0902 8 15.9146 8C15.7463 8 15.5854 8.05616 15.4537 8.16849L15.4244 8.18955Z" fill="#67E0E6"/>
<circle cx="12" cy="12" r="11" stroke="#67E0E6" stroke-width="2"/>
</svg>
