<svg width="14" height="14" viewBox="0 0 14 14" fill="none" xmlns="http://www.w3.org/2000/svg">
<path d="M7.00064 0.333332C3.31833 0.333332 0.333328 3.31833 0.333328 6.99936C0.333328 10.6817 3.31833 13.6667 7.00064 13.6667C10.6829 13.6667 13.6667 10.6817 13.6667 6.99936C13.6667 3.31833 10.6817 0.333332 7.00064 0.333332ZM10.1059 7.92825H7.50602H6.45942C6.24191 7.92825 6.06662 7.75169 6.06662 7.53546V6.48757V2.89611C6.06662 2.47516 6.42871 2.13866 6.85734 2.1796C7.23222 2.21543 7.5073 2.55065 7.5073 2.92681V6.48757H10.0765C10.4526 6.48757 10.7891 6.76266 10.8237 7.13754C10.8633 7.56616 10.5268 7.92825 10.1059 7.92825Z" fill="#000059"/>
</svg>
