<svg width="14" height="14" viewBox="0 0 14 14" fill="none" xmlns="http://www.w3.org/2000/svg">
<path d="M6.88112 1.93074L6.88111 1.93074C6.30451 1.87566 5.81663 2.32889 5.81663 2.89611V6.48757V7.53546C5.81663 7.88923 6.10331 8.17825 6.45942 8.17825H7.50603H10.1059C10.6733 8.17825 11.1259 7.69042 11.0726 7.11451C11.0248 6.59654 10.5667 6.23757 10.0765 6.23757H7.75731V2.92681C7.75731 2.4358 7.39777 1.98011 6.88112 1.93074ZM0.583332 6.99936C0.583332 3.45643 3.45637 0.583332 7.00064 0.583332C10.5436 0.583332 13.4167 3.4564 13.4167 6.99936C13.4167 10.5437 10.5448 13.4167 7.00064 13.4167C3.4564 13.4167 0.583332 10.5436 0.583332 6.99936Z" stroke="#000059" stroke-width="0.5"/>
</svg>
