<svg width="66" height="20" fill="none" xmlns="http://www.w3.org/2000/svg">
    <g clip-path="url(#a)">
        <path d="M19.19.623C18.88 11.155 10.724 19.662.623 20A.602.602 0 0 1 0 19.398v-8.883c0-.32.249-.578.567-.6 4.608-.307 8.306-4.334 8.57-9.342A.6.6 0 0 1 9.733 0h8.857c.339 0 .61.283.599.623z" fill="#00EBAA"/>
        <path d="M28.35 10.515v8.883a.602.602 0 0 1-.623.602C17.627 19.662 9.471 11.155 9.161.623A.603.603 0 0 1 9.76 0h8.857a.6.6 0 0 1 .598.573c.263 5.008 3.96 9.035 8.57 9.343.316.02.564.28.564.599z" fill="#67E0E6"/>
        <path d="M14.176 13.481c2.994-3.416 4.868-7.913 5.015-12.856A.604.604 0 0 0 18.592 0H9.76a.602.602 0 0 0-.6.625c.147 4.943 2.022 9.44 5.016 12.856z" fill="#00CCA7"/>
        <path d="M33.342 19.676V.324c0-.178.145-.324.322-.324h7.485C43.2 0 44.88.628 46.22 1.857c1.34 1.23 1.994 2.8 1.994 4.743 0 2.482-1.324 4.572-3.254 5.677a.321.321 0 0 0-.12.437l3.815 6.802a.324.324 0 0 1-.281.482H44.11a.322.322 0 0 1-.287-.176L40.61 13.49a.322.322 0 0 0-.287-.177h-2.158a.324.324 0 0 0-.322.324v6.038a.324.324 0 0 1-.324.324h-3.856a.322.322 0 0 1-.322-.324zm4.502-10.542c0 .178.145.324.322.324h2.584c1.71 0 2.85-1.058 2.85-2.858 0-1.686-1.11-2.743-2.907-2.743h-2.527a.324.324 0 0 0-.322.324v4.953zM56.411 6.799c4.19 0 7.068 2.762 7.068 6.44 0 3.81-2.911 6.717-6.992 6.717-3.95 0-6.772-2.53-6.94-6.154a.326.326 0 0 1 .323-.343h4.161c.168 0 .302.127.322.294.127 1.117.975 1.89 2.133 1.89 1.23 0 2.127-1.135 2.127-2.406 0-1.347-.942-2.458-2.313-2.458h-5.479a.32.32 0 0 1-.077-.008.89.89 0 0 1-.704-.962l.977-9.52a.324.324 0 0 1 .321-.29h10.475c.177 0 .323.145.323.323v3.052a.324.324 0 0 1-.323.324h-6.608a.323.323 0 0 0-.321.3l-.187 2.45a.323.323 0 0 0 .321.348l1.393.003z" fill="#000059"/>
    </g>
    <defs>
        <clipPath id="a">
            <path fill="#fff" d="M0 0h66v20H0z"/>
        </clipPath>
    </defs>
</svg>
